<svg id="Capa_1" enable-background="new 0 0 512.002 512.002" height="512" viewBox="0 0 512.002 512.002" width="512" xmlns="http://www.w3.org/2000/svg"><g><g><g><path d="m280.707 369.436c-5.673-5.673-13.077-8.575-20.528-8.725 1.385-9.087-1.875-19.161-8.863-26.149-5.646-5.645-13.15-8.753-21.133-8.753-1.645 0-3.268.139-4.861.398-.224-7.647-3.773-15.28-9.204-20.71-5.646-5.645-13.15-8.753-21.133-8.753-2.007 0-3.984.197-5.909.581-.403-7.072-3.768-14.502-9.158-19.891-11.653-11.652-30.611-11.654-42.267 0l-12.485 12.485-48.66-48.66c-.027-.027-.056-.055-.084-.082-4.062-3.938-15.552-15.668-19.879-22.554l-42.692-67.957c-2.204-3.508-6.833-4.564-10.34-2.361-3.508 2.203-4.565 6.833-2.361 10.34l42.692 67.958c6.073 9.666 20.984 24.221 22.097 25.302l48.857 48.857c-3.385 4.636-5.217 10.203-5.217 16.053 0 7.292 2.84 14.146 7.995 19.302l4.134 4.134c5.156 5.156 12.012 7.996 19.303 7.996 1.676 0 3.328-.157 4.942-.451.638 5.988 3.242 11.805 7.821 16.385l4.134 4.134c5.322 5.322 12.313 7.982 19.303 7.982 1.288 0 2.575-.092 3.852-.272.487 6.507 3.248 12.56 7.909 17.222l4.134 4.134c5.156 5.156 12.012 7.995 19.303 7.995.547 0 1.09-.021 1.631-.053.04 6.937 2.697 13.861 7.979 19.143l4.133 4.133c5.156 5.156 12.012 7.996 19.303 7.996 1.611 0 3.2-.147 4.755-.418l4.722 4.722c5.322 5.322 12.312 7.982 19.303 7.982 6.989 0 13.981-2.661 19.302-7.982l4.135-4.134c4.919-4.919 7.564-11.265 7.937-17.717 8.035.958 16.405-1.642 22.551-7.789l4.136-4.135c4.938-4.939 7.585-11.315 7.94-17.795 1.035.118 2.083.178 3.141.178 7.291 0 14.146-2.84 19.301-7.995l4.133-4.133c5.934-5.933 8.56-13.94 7.878-21.709 6.701-.209 13.339-2.866 18.442-7.969l4.133-4.133c5.157-5.156 7.996-12.011 7.996-19.303s-2.839-14.147-7.995-19.302l-2.808-2.808 21.064-20.544c2.966-2.892 3.024-7.641.133-10.606-2.892-2.965-7.642-3.025-10.605-.132l-21.198 20.676-38.687-38.688c2.846-.406 5.686-.926 8.509-1.592 4.032-.951 6.529-4.991 5.578-9.022-.951-4.032-4.996-6.525-9.021-5.578-15.626 3.687-31.808 2.646-46.794-3.011-13.21-4.985-20.997-10.441-21.06-10.486-2.894-2.066-6.84-1.817-9.451.596l-25.994 24.033c-15.165 14.203-38.601 14.843-54.518 1.488-1.518-1.273-2.38-3.064-2.429-5.044-.05-1.979.723-3.81 2.158-5.142l66.896-61.694c1.876-1.74 4.313-2.821 6.86-3.043l16.766-1.467c4.127-.361 7.179-3.999 6.818-8.125s-4.007-7.173-8.125-6.818l-16.766 1.467c-5.568.487-10.889 2.774-15.09 6.422-9.443-3.414-19.604-4.601-29.593-3.415l-29.935 3.548c-.104.012-29.366 4.718-29.366 4.718l-20.191-33.499c-2.14-3.547-6.746-4.689-10.296-2.552-3.547 2.138-4.689 6.748-2.552 10.295l22.808 37.836c1.371 2.275 3.822 3.629 6.421 3.629.396 0 35.097-5.55 35.097-5.55l29.78-3.53c4.938-.586 9.926-.395 14.79.497l-54.509 50.27c-4.584 4.252-7.124 10.276-6.969 16.526.156 6.251 2.992 12.142 7.782 16.161 10.449 8.768 23.269 13.117 36.064 13.116 13.809-.001 27.59-5.068 38.314-15.113l21.755-20.113c4.175 2.412 10.722 5.811 19.234 9.023 8.584 3.24 17.499 5.191 26.508 5.865l62.013 62.014c2.322 2.323 3.602 5.411 3.602 8.695s-1.279 6.373-3.603 8.696l-4.134 4.134c-4.795 4.795-12.596 4.795-17.391 0l-.001-.001c-.236-.236-57.608-57.609-57.608-57.609-2.93-2.929-7.678-2.929-10.607 0s-2.929 7.678 0 10.606l59.289 59.289c4.795 4.795 4.795 12.597 0 17.392l-4.134 4.133c-2.322 2.322-5.41 3.602-8.694 3.602-3.285 0-6.374-1.279-8.696-3.601l-59.289-59.29c-2.93-2.929-7.678-2.93-10.607 0-2.929 2.929-2.929 7.678 0 10.606 0 0 56.695 56.694 56.904 56.903 4.795 4.795 4.795 12.597.001 17.391l-4.135 4.134c-4.796 4.794-12.598 4.795-17.392 0l-10.242-10.243c-.162-7.746-3.709-15.47-9.212-20.972zm-111.397-81.399c5.805 5.804 6.279 15.724.475 21.528l-20.078 20.078c-4.795 4.795-12.596 4.795-17.391 0l-4.134-4.134c-4.795-4.795-4.795-12.597 0-17.392l20.078-20.078c2.902-2.902 6.715-4.354 10.527-4.354 3.811.001 7.622 1.452 10.523 4.352zm36.2 28.064c5.805 5.804 6.279 15.724.475 21.528-.002.002-.003.003-.005.005 0 0-19.713 19.712-20.073 20.073-2.322 2.323-5.41 3.602-8.695 3.602s-6.373-1.279-8.695-3.602l-4.134-4.134c-2.323-2.323-3.603-5.411-3.603-8.696s1.279-6.373 3.603-8.696c0 0 19.61-19.61 20.078-20.078 5.803-5.803 15.247-5.804 21.049-.002zm35.208 29.076c5.805 5.804 6.27 15.713.465 21.518-.312.312-19.975 19.975-20.078 20.078-4.795 4.795-12.596 4.795-17.391 0l-4.134-4.134c-4.795-4.795-4.795-12.597 0-17.392l20.078-20.078c2.812-2.812 6.55-4.36 10.525-4.36 3.977 0 7.715 1.548 10.535 4.368zm29.391 34.873c2.812 2.812 4.825 7.015 4.825 10.991s-1.549 7.714-4.361 10.526l-16.423 16.423c-2.322 2.323-5.41 3.602-8.695 3.602s-6.373-1.279-8.696-3.603l-4.133-4.133c-4.795-4.795-4.795-12.597.001-17.392l16.423-16.423c2.9-2.901 6.71-4.352 10.522-4.352 3.813.001 7.629 1.455 10.537 4.361zm16.955 46.105-4.135 4.134c-4.795 4.795-12.596 4.795-17.391 0l-1.248-1.248c.155-.148 16.889-16.867 16.889-16.867 1.583-1.583 2.959-3.317 4.131-5.162 0 0 1.495 1.494 1.753 1.752l.021.021c4.774 4.796 4.767 12.583-.02 17.37z"/><path d="m508.49 148.305c-3.508-2.205-8.136-1.146-10.34 2.361l-42.692 67.957c-5.271 8.391-11.831 15.836-19.497 22.131-.165.136-7.297 7.079-7.297 7.079-2.966 2.892-3.025 7.641-.133 10.606 1.47 1.507 3.419 2.263 5.37 2.263 1.888 0 3.777-.708 5.235-2.131l6.596-6.432c8.808-7.277 16.352-15.867 22.427-25.536l42.692-67.957c2.205-3.508 1.147-8.138-2.361-10.341z"/><path d="m110.504 116.628c1.408 2.336 3.888 3.629 6.43 3.629 1.318 0 2.653-.348 3.865-1.078 3.547-2.138 4.689-6.748 2.551-10.295l-25.396-42.131c-2.139-3.547-6.745-4.688-10.295-2.551-3.547 2.138-4.689 6.748-2.551 10.295z"/><path d="m315.456 170.025 18.364-1.606c10.206-.897 20.469 1.819 28.901 7.636l17.213 11.875c5.229 3.607 8.545 9.305 9.099 15.633.342 3.904 3.616 6.846 7.463 6.846.22 0 .44-.01.663-.029 4.126-.361 7.179-3.999 6.817-8.125-.945-10.795-6.604-20.517-15.523-26.671l-15.885-10.959 54.327-90.128c2.138-3.547.995-8.157-2.552-10.295-3.549-2.137-8.158-.996-10.295 2.552l-54.645 90.656c-8.489-3.352-17.706-4.738-26.889-3.934l-18.364 1.606c-4.127.361-7.179 3.999-6.818 8.125s4.002 7.175 8.124 6.818z"/></g></g></g></svg>