<?xml version="1.0"?>
<svg xmlns="http://www.w3.org/2000/svg" viewBox="0 0 64 64" width="512" height="512"><g id="_10-flag_on_the_moon" data-name="10-flag on the moon"><path d="M35,24.25006V14a13.94461,13.94461,0,0,0,3.74219-.52979A12.10289,12.10289,0,0,1,42,13a5.56679,5.56679,0,0,1,3.293.70752V13.707A.99991.99991,0,0,0,47,13V2a1.00012,1.00012,0,0,0-.293-.707C46.49121,1.07715,45.25,0,42,0a13.94461,13.94461,0,0,0-3.74219.52979A12.10289,12.10289,0,0,1,35,1,11.32785,11.32785,0,0,1,30.44727.10547,1.00038,1.00038,0,0,0,29,1V24.25006a20,20,0,1,0,6,0ZM42,11a13.94461,13.94461,0,0,0-3.74219.52979A12.10289,12.10289,0,0,1,35,12a12.05281,12.05281,0,0,1-4-.67139V9.42938A14.1651,14.1651,0,0,0,35,10a13.94461,13.94461,0,0,0,3.74219-.52979A12.10289,12.10289,0,0,1,42,9a6.72541,6.72541,0,0,1,3,.54309v1.85046A10.2203,10.2203,0,0,0,42,11ZM31,6.43213A14.2564,14.2564,0,0,0,35,7a13.94461,13.94461,0,0,0,3.74219-.52979A12.10289,12.10289,0,0,1,42,6a6.865,6.865,0,0,1,3,.53613v.85742A10.2203,10.2203,0,0,0,42,7a13.94461,13.94461,0,0,0-3.74219.52979A12.10289,12.10289,0,0,1,35,8a12.05281,12.05281,0,0,1-4-.67139Zm7.74219-3.96192A12.10289,12.10289,0,0,1,42,2a6.82057,6.82057,0,0,1,3,.53955V4.39929A10.10363,10.10363,0,0,0,42,4a13.94461,13.94461,0,0,0-3.74219.52979A13.9885,13.9885,0,0,1,36,4.95465V2.95886A15.4012,15.4012,0,0,0,38.74219,2.47021ZM34,2.95874V4.9585A11.71324,11.71324,0,0,1,31,4.326V2.43213A14.26725,14.26725,0,0,0,34,2.95874ZM31,13.42938a13.94128,13.94128,0,0,0,2,.426V24.05066C32.6665,24.03406,32.33752,24,32,24s-.6665.03406-1,.05066ZM32,62A18,18,0,1,1,50,44,18.02063,18.02063,0,0,1,32,62Z"/><path d="M24,42a4,4,0,1,0-4,4A4.00427,4.00427,0,0,0,24,42Zm-6,0a2,2,0,1,1,2,2A2.00229,2.00229,0,0,1,18,42Z"/><path d="M33,49a3,3,0,1,0-3,3A3.00328,3.00328,0,0,0,33,49Zm-4,0a1,1,0,1,1,1,1A1.001,1.001,0,0,1,29,49Z"/><path d="M23,50a3,3,0,1,0,3,3A3.00328,3.00328,0,0,0,23,50Zm0,4a1,1,0,1,1,1-1A1.001,1.001,0,0,1,23,54Z"/><path d="M33,54a3,3,0,1,0,3,3A3.00328,3.00328,0,0,0,33,54Zm0,4a1,1,0,1,1,1-1A1.001,1.001,0,0,1,33,58Z"/><rect x="39" y="31" width="2" height="2"/><rect x="45" y="41" width="2" height="2"/><rect x="43" y="35" width="2" height="2"/><rect x="39" y="38" width="2" height="2"/><path d="M63.31641,57.05127c-2.56446-.85449-4.4043-4.46338-4.42286-4.49951A1.00045,1.00045,0,0,0,58,52.00049h-.001a1.00026,1.00026,0,0,0-.89355.55224c-.50488,1.00977-2.2832,3.78565-4.42188,4.49854a1.00015,1.00015,0,0,0,0,1.89746c2.56446.85449,4.4043,4.46338,4.42286,4.49951A1.00045,1.00045,0,0,0,58,63.99951h.001a1.00026,1.00026,0,0,0,.89355-.55224c.50488-1.00977,2.2832-3.78565,4.42188-4.49854a1.00015,1.00015,0,0,0,0-1.89746ZM58,61.06543A12.47719,12.47719,0,0,0,55.127,58,12.47719,12.47719,0,0,0,58,54.93457,12.47719,12.47719,0,0,0,60.87305,58,12.47719,12.47719,0,0,0,58,61.06543Z"/><path d="M12.68359,11.94873c2.56446.85449,4.4043,4.46338,4.42286,4.49951A1.00045,1.00045,0,0,0,18,16.99951h.001a1.00026,1.00026,0,0,0,.89355-.55224c.50488-1.00977,2.2832-3.78565,4.42188-4.49854a1.00015,1.00015,0,0,0,0-1.89746c-2.56446-.85449-4.4043-4.46338-4.42286-4.49951A1.00045,1.00045,0,0,0,18,5.00049h-.001a1.00026,1.00026,0,0,0-.89355.55224c-.50488,1.00977-2.2832,3.78565-4.42188,4.49854a1.00015,1.00015,0,0,0,0,1.89746ZM18,7.93457A12.47719,12.47719,0,0,0,20.87305,11,12.47719,12.47719,0,0,0,18,14.06543,12.47719,12.47719,0,0,0,15.127,11,12.47719,12.47719,0,0,0,18,7.93457Z"/><path d="M11.31641,26.05127c-2.56446-.85449-4.4043-4.46338-4.42286-4.49951A1.00045,1.00045,0,0,0,6,21.00049H5.999a1.00026,1.00026,0,0,0-.89355.55224c-.50488,1.00977-2.2832,3.78565-4.42188,4.49854a1.00015,1.00015,0,0,0,0,1.89746c2.56446.85449,4.4043,4.46338,4.42286,4.49951A1.00045,1.00045,0,0,0,6,32.99951h.001a1.00026,1.00026,0,0,0,.89355-.55224c.50488-1.00977,2.2832-3.78565,4.42188-4.49854a1.00015,1.00015,0,0,0,0-1.89746ZM6,30.06543A12.47719,12.47719,0,0,0,3.127,27,12.47719,12.47719,0,0,0,6,23.93457,12.47719,12.47719,0,0,0,8.873,27,12.47719,12.47719,0,0,0,6,30.06543Z"/></g></svg>
